<?xml version="1.0" encoding="UTF-8" standalone="no"?>
<svg
   xmlns:dc="http://purl.org/dc/elements/1.1/"
   xmlns:cc="http://creativecommons.org/ns#"
   xmlns:rdf="http://www.w3.org/1999/02/22-rdf-syntax-ns#"
   xmlns:svg="http://www.w3.org/2000/svg"
   xmlns="http://www.w3.org/2000/svg"
   xmlns:sodipodi="http://sodipodi.sourceforge.net/DTD/sodipodi-0.dtd"
   xmlns:inkscape="http://www.inkscape.org/namespaces/inkscape"
   version="1.1"
   id="svg3453"
   width="15.805553"
   height="18.781076">
  <metadata
     id="metadata3459">
    <rdf:RDF>
      <cc:Work
         rdf:about="">
        <dc:format>image/svg+xml</dc:format>
        <dc:type
           rdf:resource="http://purl.org/dc/dcmitype/StillImage" />
      </cc:Work>
    </rdf:RDF>
  </metadata>
  <defs
     id="defs3457" />
  <sodipodi:namedview
     pagecolor="#ffffff"
     bordercolor="#666666"
     borderopacity="1"
     objecttolerance="10"
     gridtolerance="10"
     guidetolerance="10"
     inkscape:pageopacity="0"
     inkscape:pageshadow="2"
     inkscape:window-width="640"
     inkscape:window-height="480"
     id="namedview3455" />
  <inkscape:clipboard
     style="font-variation-settings:normal;opacity:1;vector-effect:none;fill:#000000;fill-opacity:1;stroke-width:0.99999874;stroke-linecap:butt;stroke-linejoin:miter;stroke-miterlimit:4;stroke-dasharray:none;stroke-dashoffset:0;stroke-opacity:1;stop-color:#000000;stop-opacity:1"
     min="180.36526,628.77109"
     max="196.17082,647.55216" />
  <path
     d="M 12.421323,7.323893 V 6.1895434 H 0 V 7.323893 h 2.6846551 q -0.3782059,0.4349102 -0.567171,0.9642709 -0.188863,0.5293228 -0.188863,1.0587212 0,0.8318739 0.3402331,1.5124539 0.3402331,0.661757 0.9264,1.002028 -0.8129839,0.264945 -1.285629,1.096592 -0.4915616,0.831874 -0.4915616,1.928429 0,1.455798 1.0020284,2.495622 1.0020397,1.020926 2.4010621,1.020926 1.94736,0 3.7623383,-2.04189 1.7960766,-2.06075 3.1573266,-5.766388 l -1.020956,-0.453656 q -1.2099857,3.327496 -2.760295,5.161398 -1.5502678,1.83394 -3.1384139,1.83394 -0.8696731,0 -1.4935522,-0.661682 -0.6428145,-0.661757 -0.6428145,-1.588157 0,-1.039899 0.6049928,-1.77721 0.5861065,-0.756245 1.4179578,-0.756245 H 7.2222237 L 7.7138004,11.237594 H 4.9535093 q -0.7373442,0 -1.2477883,-0.548296 -0.510463,-0.567194 -0.510463,-1.3423373 0,-0.5293984 0.3027401,-1.0587212 0.3022867,-0.5294363 0.8318552,-0.9641953 z"
     id="path1326-0-8-24-7"
     style="font-size:4.23333px;line-height:1.25;font-family:sans-serif;letter-spacing:0px;word-spacing:0px;stroke-width:0.999999" />
  <path
     d="M 15.805554,7.323893 V 6.1895434 H 10.266006 V 7.323893 h 2.155317 V 18.781077 H 13.66913 V 7.323893 Z"
     id="path1462-5-3-8-3-9-1"
     style="font-size:4.23333px;line-height:1.25;font-family:sans-serif;letter-spacing:0px;word-spacing:0px;stroke-width:0.999999" />
  <path
     d="M 12.703329,6.2957859 10.05645,0.75624568 11.323159,0 13.402844,6.2957859 h -0.699478 z"
     id="path1376-3-2-4-8-1-5-69"
     style="font-size:4.23333px;line-height:1.25;font-family:sans-serif;letter-spacing:0px;word-spacing:0px;stroke-width:0.999999"
     sodipodi:nodetypes="cccccc" />
</svg>
